<svg xmlns="http://www.w3.org/2000/svg" xmlns:xlink="http://www.w3.org/1999/xlink" version="1.1" width="1224pt" height="792pt" viewBox="0 0 1224 792">
<defs>
<clipPath id="clip_0">
<path transform="matrix(.75,0,0,.75,84.75,54)" d="M-2-2H1408V663H-2V-2Z"/>
</clipPath>
</defs>
<g>
<g clip-path="url(#clip_0)">
<path transform="matrix(.75,0,0,.75,84.75,54)" d="M0 44H1407V190H0V44Z" fill="#ffffff"/>
<path transform="matrix(.75,0,0,.75,84.75,54)" d="M0 212H1407V343H0V212Z" fill="#ffffff"/>
<path transform="matrix(.75,0,0,.75,84.75,54)" d="M0 365H1407V494H0V365Z" fill="#ffffff"/>
<path transform="matrix(.75,0,0,.75,84.75,54)" d="M0 516H1407V538H0V516Z" fill="#ffffff"/>
<path transform="matrix(.75,0,0,.75,84.75,54)" d="M0 538H1039V662H0V538Z" fill="#ffffff"/>
<path transform="matrix(.75,0,0,.75,84.75,54)" d="M-1-1H1407V22H-1V-1Z" fill="#9bc2e6"/>
<path transform="matrix(.75,0,0,.75,84.75,54)" d="M-1 21H1407V44H-1V21Z" fill="#ffc000"/>
<path transform="matrix(.75,0,0,.75,84.75,54)" d="M-1 189H1407V212H-1V189Z" fill="#ffc000"/>
<path transform="matrix(.75,0,0,.75,84.75,54)" d="M-1 342H1407V365H-1V342Z" fill="#ffc000"/>
<path transform="matrix(.75,0,0,.75,84.75,54)" d="M-1 493H1407V516H-1V493Z" fill="#ffc000"/>
<path transform="matrix(.75,0,0,.75,84.75,54)" d="M1038 537H1407V662H1038V537Z" fill="#999999"/>
<path transform="matrix(.75,0,0,.75,84.75,54)" d="" fill-opacity=".14901962"/>
<path transform="matrix(.75,0,0,.75,84.75,54)" stroke-width="1" stroke-linecap="butt" stroke-miterlimit="10" stroke-linejoin="miter" fill="none" stroke="#000000" d="M-.5-1V662M293.5 43V66M293.5 211V343M293.5 364V494M293.5 515V538M419.5 43V66M419.5 211V234M419.5 364V494M419.5 515V538M554.5 43V190M554.5 211V234M554.5 364V387M554.5 515V662M733.5 43V66M733.5 211V343M733.5 364V494M733.5 515V662M1038.5 43V190M1038.5 211V343M1038.5 364V494M1038.5 515V662M1185.5 43V66M1185.5 211V343M1185.5 364V387M1185.5 515V538M-1-.5H1407M-1 21.5H1407M-1 43.5H1407M-1 65.5H1407M-1 189.5H1407M-1 211.5H1407M-1 233.5H1407M-1 342.5H1407M-1 364.5H1407M-1 386.5H1407M-1 493.5H1407M-1 515.5H1407M-1 537.5H1407M-1 661.5H1407M1406.5-1V662"/>
<text xml:space="preserve" transform="matrix(.75 0 0 .75 84.75 54)" font-size="14.299999" font-family="Calibri"><tspan y="14.878021" x="667 674.6219 679.36947 686.9055 694.413 701.9491 708.6701 713.3605 720.21017 731.6215">Cronograma</tspan></text>
<text xml:space="preserve" transform="matrix(.75 0 0 .75 84.75 54)" font-size="14.299999" font-family="Calibri"><tspan y="36.87802" x="674 680.5637 687.67086 699.0822 705.9319 713.4394 720.28909 723.5209">Semana 1</tspan></text>
<text xml:space="preserve" transform="matrix(.75 0 0 .75 84.75 54)" font-size="14.299999" font-family="Calibri"><tspan y="58.87802" x="129 135.006 142.5135 150.02101 157.12812">Lunes</tspan></text>
<text xml:space="preserve" transform="matrix(.75 0 0 .75 84.75 54)" font-size="14.299999" font-family="Calibri"><tspan y="58.87802" x="335 347.2122 354.0619 359.0383 363.6715 370.7786">Martes</tspan></text>
<text xml:space="preserve" transform="matrix(.75 0 0 .75 84.75 54)" font-size="14.299999" font-family="Calibri"><tspan y="58.87802" x="458 470.2122 473.48689 480.59397 485.37019 491.29039 498.82649 502.10118 509.20826">Mi&#x00e9;rcoles</tspan></text>
<text xml:space="preserve" transform="matrix(.75 0 0 .75 84.75 54)" font-size="14.299999" font-family="Calibri"><tspan y="58.87802" x="624 628.5474 636.05496 643.10488 649.4254 656.53256">Jueves</tspan></text>
<text xml:space="preserve" transform="matrix(.75 0 0 .75 84.75 54)" font-size="14.299999" font-family="Calibri"><tspan y="58.87802" x="864 872.1081 875.3828 882.4899 887.4663 894.9738 902.08096">Viernes</tspan></text>
<text xml:space="preserve" transform="matrix(.75 0 0 .75 84.75 54)" font-size="14.299999" font-family="Calibri"><tspan y="58.87802" x="1090 1096.5637 1103.4135 1110.9209 1117.7706 1125.2781">S&#x00e1;bado</tspan></text>
<text xml:space="preserve" transform="matrix(.75 0 0 .75 84.75 54)" font-size="14.299999" font-family="Calibri"><tspan y="58.87802" x="1269 1277.7946 1285.3307 1296.7421 1300.0167 1307.5242 1314.1593">Domingo</tspan></text>
<text xml:space="preserve" transform="matrix(.75 0 0 .75 84.75 54)" font-size="14.299999" font-family="Calibri" font-weight="bold"><tspan y="105.87802" x="192 198.16332 205.21321 210.90462 218.09752 221.32932 224.83281 232.29741 238.93262 246.12552 251.65962 256.60743 260.11094 266.64604 273.56724 278.51506 282.01856 288.58226 295.63215 298.86396 302.36747 310.03227 317.69706 321.20057 327.96446 331.46797 339.13276 346.79756 353.84745 357.35096">Fase investigativa individual:</tspan></text>
<text xml:space="preserve" transform="matrix(.75 0 0 .75 84.75 54)" font-size="14.299999" font-family="Calibri"><tspan y="123.33026" x="157 160.2318 164.60759 173.40209 176.67679 183.78389 190.41909 197.95519 201.77329 205.00508 212.62699 219.47669 222.75139 228.786 236.2935 239.5682 247.10431 250.3361 257.8436 264.95069 268.1825 272.7871 279.6368 287.14433 290.419 297.2687 300.50053 308.00804 315.1151 318.34693 325.85444 330.64494 337.752 343.18605 347.79066 354.64036 366.05177 373.58787 379.17918 382.41099 388.87458 392.10639"> -Diego: Calculo de tabla de pr&#x00e9;stamos y .</tspan></text>
<text xml:space="preserve" transform="matrix(.75 0 0 .75 84.75 54)" font-size="14.299999" font-family="Calibri"><tspan y="140.7825" x="34 38.3758 46.1407 51.1743 57.4234 64.2731 71.7806 75.5987 78.830509 83.62101 90.72811 97.44911 100.723819 106.157817 110.93401 115.68162 123.21772 126.449527 133.95703 141.06414 144.29593 149.07213 153.76253 160.61223 168.11974 173.71103 180.56073 186.59534 189.87004 197.40615 204.91365 212.02075 217.61205 220.84384 227.30744 230.53923 236.45944 243.30915 246.58385 252.61846 260.12596 263.40065 270.93675 274.16856 281.67607 288.78315 292.05784 295.28965 302.13935 309.64686 317.18296 322.15937 326.79258 333.89967 337.13148 344.63899 351.74607 354.97789 360.89808 367.74778 375.25529 378.52998 383.13459 389.98429 393.25898 396.49079 402.95439 406.1862 409.46089 416.8397 421.4729 428.58 433.37049 440.47758 446.06889 453.17597 458.76728 461.99909 468.8488 476.3563 483.8924 491.3999 498.2496 505.7571 513.2932">-Bryan: registro de transaciones y calculo del aporte de capital y intereses abonados</tspan></text>
<text xml:space="preserve" transform="matrix(.75 0 0 .75 84.75 54)" font-size="14.299999" font-family="Calibri"><tspan y="158.23474" x="25 29.375802 38.284704 45.3918 48.6665 56.174 63.281099 68.2575 72.0756 75.3074 78.896709 86.17541 92.49601 99.60311 105.03711 109.81331 113.08801 119.55161 126.40131 132.43592 135.71062 143.24672 150.75423 153.98603 158.61922 165.72632 173.26242 178.23882 181.51352 187.43373 194.28343 197.51523 203.10652 210.64263 218.15013 222.94063 230.04773 233.27953 240.78704 245.57753 252.68463 258.11866 262.72328 269.57298 280.98439 288.52049 294.1118 297.3436 304.45069 307.6825 310.9143 314.189 321.625 325.7005 333.2366 338.213 349.62443 356.47413 362.50874 365.78343 373.31953 380.82704 384.05885 389.65016 397.18626 404.69377 409.48426 416.59135 419.82316 427.44505 436.23954 443.40385 448.99516 452.22697 458.69056 461.92237 467.51368 475.02119 478.253 482.3285 489.8646 494.841 506.2524 513.7599 517.0346 523.8843">-Heiner: Investigaci&#x00f3;n te&#x00f3;rica sobre pr&#x00e9;stamos e  informaci&#x00f3;n sobre CDPs y su f&#x00f3;rmula.</tspan></text>
<text xml:space="preserve" transform="matrix(.75 0 0 .75 84.75 54)" font-size="14.299999" font-family="Calibri" font-weight="bold"><tspan y="114.87802" x="751 757.16329 764.2132 769.9046 777.0975 780.3293 787.9941 795.18698 798.41879 806.08358 809.58706 815.27847 822.4713 830.1361 837.8152">Fase de dise&#x00f1;o:</tspan></text>
<text xml:space="preserve" transform="matrix(.75 0 0 .75 84.75 54)" font-size="14.299999" font-family="Calibri"><tspan y="132.33026" x="674 678.3758 685.8833 692.9904 700.4979 708.00546 711.28018 718.8162 726.3237 729.55557 736.27658 741.2529 748.76046 756.26797 763.1176 766.39236 769.62417 777.13168 783.9813 788.6717 795.52139 798.7532 806.2607 813.2534 817.6149 820.88967 828.39718 831.6719 836.64828 839.88009 847.3876 852.17807 859.28518 864.87649 871.9836 879.36239 883.967 890.81668 896.85128 900.126 907.66207 915.16958">-Reuni&#x00f3;n grupal para definir presentaci&#x00f3;n.</tspan></text>
<text xml:space="preserve" transform="matrix(.75 0 0 .75 84.75 54)" font-size="14.299999" font-family="Calibri"><tspan y="149.7825" x="689 693.3758 700.9977 705.78817 712.89529 719.74496 725.77957 729.05429 736.59036 744.09786 747.32968 754.83718 761.9443 765.1761 772.6836 775.9583 782.808 789.529 794.21939 801.06906 812.4804 819.3301 822.5619 829.0255 832.2573 838.29196 843.0395 850.57559 858.08309 865.61917 872.34017 877.0305 883.8802 895.29159">-Creaci&#x00f3;n de diagrama y cronograma</tspan></text>
<text xml:space="preserve" transform="matrix(.75 0 0 .75 84.75 54)" font-size="14.299999" font-family="Calibri" font-weight="bold"><tspan y="105.87802" x="1161 1168.6076 1173.5125 1181.1915 1186.0106 1193.6897 1198.6375 1202.141 1209.8058 1217.4849 1223.1763 1226.4081 1234.0729 1241.2658 1244.4976 1250.475 1253.9785 1261.0285 1266.7199 1273.9127 1279.6041">Prototipos de clases:</tspan></text>
<text xml:space="preserve" transform="matrix(.75 0 0 .75 84.75 54)" font-size="14.299999" font-family="Calibri"><tspan y="123.33026" x="1174 1182.7946 1186.0692 1193.1763 1199.8114 1207.3475 1211.1657 1214.3975 1221.7763 1226.5668 1233.6738 1239.1078 1243.7124 1250.5621 1261.9735">Diego: Pr&#x00e9;stamo</tspan></text>
<text xml:space="preserve" transform="matrix(.75 0 0 .75 84.75 54)" font-size="14.299999" font-family="Calibri"><tspan y="140.7825" x="1188 1196.9089 1204.016 1207.2907 1214.7981 1221.9052 1226.8816 1230.6997 1233.9315 1239.9661 1247.4735">Heiner: cdp</tspan></text>
<text xml:space="preserve" transform="matrix(.75 0 0 .75 84.75 54)" font-size="14.299999" font-family="Calibri"><tspan y="158.23474" x="1180 1187.7649 1192.7986 1199.0477 1205.8975 1213.4049 1217.223 1220.4548 1227.9623 1233.5536 1241.061 1247.9108 1252.8872 1256.1619">Bryan: usuario</tspan></text>
<text xml:space="preserve" transform="matrix(.75 0 0 .75 84.75 54)" font-size="14.299999" font-family="Calibri"><tspan y="204.87802" x="674 680.5637 687.67086 699.0822 705.9319 713.4394 720.28909 723.5209">Semana 2</tspan></text>
<text xml:space="preserve" transform="matrix(.75 0 0 .75 84.75 54)" font-size="14.299999" font-family="Calibri"><tspan y="226.87802" x="129 135.006 142.5135 150.02101 157.12812">Lunes</tspan></text>
<text xml:space="preserve" transform="matrix(.75 0 0 .75 84.75 54)" font-size="14.299999" font-family="Calibri"><tspan y="226.87802" x="335 347.2122 354.0619 359.0383 363.6715 370.7786">Martes</tspan></text>
<text xml:space="preserve" transform="matrix(.75 0 0 .75 84.75 54)" font-size="14.299999" font-family="Calibri"><tspan y="226.87802" x="458 470.2122 473.48689 480.59397 485.37019 491.29039 498.82649 502.10118 509.20826">Mi&#x00e9;rcoles</tspan></text>
<text xml:space="preserve" transform="matrix(.75 0 0 .75 84.75 54)" font-size="14.299999" font-family="Calibri"><tspan y="226.87802" x="624 628.5474 636.05496 643.10488 649.4254 656.53256">Jueves</tspan></text>
<text xml:space="preserve" transform="matrix(.75 0 0 .75 84.75 54)" font-size="14.299999" font-family="Calibri"><tspan y="226.87802" x="864 872.1081 875.3828 882.4899 887.4663 894.9738 902.08096">Viernes</tspan></text>
<text xml:space="preserve" transform="matrix(.75 0 0 .75 84.75 54)" font-size="14.299999" font-family="Calibri"><tspan y="226.87802" x="1090 1096.5637 1103.4135 1110.9209 1117.7706 1125.2781">S&#x00e1;bado</tspan></text>
<text xml:space="preserve" transform="matrix(.75 0 0 .75 84.75 54)" font-size="14.299999" font-family="Calibri"><tspan y="226.87802" x="1269 1277.7946 1285.3307 1296.7421 1300.0167 1307.5242 1314.1593">Domingo</tspan></text>
<text xml:space="preserve" transform="matrix(.75 0 0 .75 84.75 54)" font-size="13" font-family="Arial" font-weight="bold"><tspan y="292.19386" x="63 71.658 76.715 83.94299 91.17099 98.39899 106.32899 110.65799 117.88599 125.11398 128.71498 136.64499 144.57498 148.17598 156.10599 163.33399 166.93498 174.86499 179.922 187.85199 195.78199 203.71198 210.93997 218.16797 222.49697">Presentaci&#x00f3;n de propuesta</tspan></text>
<text xml:space="preserve" transform="matrix(.75 0 0 .75 84.75 54)" font-size="14.299999" font-family="Calibri" font-weight="bold"><tspan y="266.87803" x="423 430.5647 435.48393 442.67683 449.7267 455.7041 459.2076 466.88673 474.5515 477.78334 485.44813 492.64103 495.87284 507.49873 514.6058 519.42489 527.10397 534.76876 542.4478 548.1392 551.37106 559.0358 566.2287 569.4605 575.4379 578.9414 585.99136 591.68276 598.8756">Creaci&#x00f3;n de m&#x00e9;todos de clase:</tspan></text>
<text xml:space="preserve" transform="matrix(.75 0 0 .75 84.75 54)" font-size="14.299999" font-family="Calibri"><tspan y="284.33027" x="465 473.7945 477.06919 484.17628 490.8115 498.3476 502.1657 505.39753 512.7763 517.5668 524.6739 530.1079 534.7125 541.5622 552.9736">Diego: Pr&#x00e9;stamo</tspan></text>
<text xml:space="preserve" transform="matrix(.75 0 0 .75 84.75 54)" font-size="14.299999" font-family="Calibri"><tspan y="301.7825" x="479 487.9089 495.016 498.29069 505.7982 512.9053 517.88168 521.69979 524.9316 530.9662 538.4737">Heiner: cdp</tspan></text>
<text xml:space="preserve" transform="matrix(.75 0 0 .75 84.75 54)" font-size="14.299999" font-family="Calibri"><tspan y="319.23475" x="473 480.7649 485.7985 492.04759 498.89729 506.4048 510.2229 517.7304 523.3217 530.8292 537.6789 542.6553 545.93">Bryan:usuario</tspan></text>
<text xml:space="preserve" transform="matrix(.75 0 0 .75 84.75 54)" font-size="14.299999" font-family="Calibri" font-weight="bold"><tspan y="266.87803" x="797 804.6076 808.1111 815.161 822.8258 826.3293 830.8481 834.35159 840.2575 847.30746 853.28488 856.7883 864.4674 872.1322 875.364 883.0288 890.2217 893.4535 901.1183 906.0375 913.23037 918.92178 926.1146 933.6507 938.4698 945.5197 951.49716 955.0006 962.6797 970.3445">Planificaci&#x00f3;n de presentaci&#x00f3;n:</tspan></text>
<text xml:space="preserve" transform="matrix(.75 0 0 .75 84.75 54)" font-size="14.299999" font-family="Calibri"><tspan y="284.33027" x="763 767.3758 774.8833 781.9904 789.4979 797.00546 800.28018 807.8162 815.3237 818.55557 825.27658 830.2529 837.76046 845.26797 852.1176 855.39236 858.62417 866.13168 872.9813 877.6717 884.52139 887.7532 895.2607 902.2534 906.6149 909.88967 917.39718 920.6719 925.64828 928.88009 936.3876 941.17807 948.28518 953.87649 960.9836 968.36239 972.967 979.81668 985.85128 989.126 996.66207 1004.16958">-Reuni&#x00f3;n grupal para definir presentaci&#x00f3;n.</tspan></text>
<text xml:space="preserve" transform="matrix(.75 0 0 .75 84.75 54)" font-size="14.299999" font-family="Calibri"><tspan y="301.7825" x="741 745.3758 752.7546 757.73098 765.23849 772.3456 779.8531 786.70278 792.29409 795.5259 803.0334 810.1405 813.3723 817.7338 825.24136 832.74887 838.78347 842.05819 849.59426 857.10177 863.9514 875.3628 878.6375 885.7446 893.1234 897.7709 905.30697 908.53878 912.87167 918.7919 925.64157 933.14907 939.9987 943.2305 946.50527 953.88406 958.5172 965.6243 972.34536 977.0357 983.8854 991.26419 995.89736 1003.00448 1006.23629 1012.1565 1019.69259 1027.2001">-Pruebas de funcionamiento (cada integrante con </tspan></text>
<text xml:space="preserve" transform="matrix(.75 0 0 .75 84.75 54)" font-size="14.299999" font-family="Calibri"><tspan y="319.23475" x="839 842.2747 849.1244 852.3562 858.3908 861.6655 868.5152 874.1065 881.2136 884.44546 890.48007 895.2705 902.3776 909.2273 916.7348 923.5845 927.91738">la clase creada).</tspan></text>
<text xml:space="preserve" transform="matrix(.75 0 0 .75 84.75 54)" font-size="14.299999" font-family="Calibri" font-weight="bold"><tspan y="274.87803" x="1053 1060.6076 1065.5125 1073.1915 1078.0106 1085.6897 1090.6375 1094.141 1101.8058 1109.4849 1112.7167 1120.3815 1127.5744 1130.8062 1138.471 1145.5209 1153.1857 1159.1058 1166.7849">Prototipo de banco:</tspan></text>
<text xml:space="preserve" transform="matrix(.75 0 0 .75 84.75 54)" font-size="14.299999" font-family="Calibri"><tspan y="292.33027" x="1051 1058.5076 1065.6146 1073.1221 1080.6295 1083.9042 1091.4403 1098.9478 1102.1796 1108.9005 1113.877 1121.3844 1128.8919 1135.7416 1139.0162 1142.248 1149.7555 1156.6052 1161.2957 1168.1454">Reuni&#x00f3;n grupal para </tspan></text>
<text xml:space="preserve" transform="matrix(.75 0 0 .75 84.75 54)" font-size="14.299999" font-family="Calibri"><tspan y="309.7825" x="1065 1072.5075 1075.7821 1081.3734 1088.4805 1095.9879 1103.524 1106.7559 1114.2633 1121.3704 1124.6022 1130.6367 1133.9114 1140.7611 1146.3524 1153.4595">dise&#x00f1;o de clase.</tspan></text>
<text xml:space="preserve" transform="matrix(.75 0 0 .75 84.75 54)" font-size="14.299999" font-family="Calibri" font-weight="bold"><tspan y="257.87803" x="1202 1209.5647 1214.4839 1221.6768 1228.7267 1234.7041 1238.2077 1245.8867 1253.5515 1256.7833 1264.4481 1271.641 1274.8728 1286.4987 1293.6057 1298.4248 1306.1039 1313.7687 1321.4478 1327.1392 1330.371 1338.0358 1345.2286 1348.4605 1356.1253 1363.1752 1370.84 1376.7601 1384.4392">Creaci&#x00f3;n de m&#x00e9;todos de banco:</tspan></text>
<text xml:space="preserve" transform="matrix(.75 0 0 .75 84.75 54)" font-size="14.299999" font-family="Calibri"><tspan y="275.33027" x="1226 1234.7946 1238.0692 1245.1763 1251.8114 1259.3475 1263.1657 1266.3975 1272.432 1277.2225 1284.3296 1291.1793 1296.1558 1303.5346 1308.3251 1315.4321 1320.8661 1325.4707 1332.3204 1343.7318 1351.268 1354.4998 1360.9634">Diego: crearPrestamo y </tspan></text>
<text xml:space="preserve" transform="matrix(.75 0 0 .75 84.75 54)" font-size="14.299999" font-family="Calibri"><tspan y="292.7825" x="1231 1242.4114 1249.9475 1255.3815 1260.1577 1264.8482 1271.6979 1276.6743 1280.2637 1287.6996 1291.775 1299.3112 1306.69 1311.4805 1318.5875 1324.0215 1328.6261 1335.4758 1346.8872 1354.4234">mostrarInfoPrestamos</tspan></text>
<text xml:space="preserve" transform="matrix(.75 0 0 .75 84.75 54)" font-size="14.299999" font-family="Calibri"><tspan y="310.23475" x="1194 1202.9089 1210.016 1213.2907 1220.7981 1227.9052 1232.8816 1236.6997 1239.9315 1245.9661 1250.7566 1257.8637 1264.7134 1269.6898 1277.3118 1284.8192 1292.3267 1295.5585 1302.0221 1305.2539 1316.6653 1324.2014 1329.6354 1334.4116 1339.102 1345.9518 1350.9282 1354.5176 1361.9535 1366.0289 1373.5651 1381.187 1388.6945">Heiner: crearCdp y mostrarInfoCdp</tspan></text>
<text xml:space="preserve" transform="matrix(.75 0 0 .75 84.75 54)" font-size="14.299999" font-family="Calibri"><tspan y="327.68699" x="1196 1203.7649 1208.7986 1215.0477 1221.8975 1229.4049 1233.223 1236.4548 1242.4894 1247.2799 1254.387 1261.2367 1266.2131 1273.8351 1281.3425 1288.4496 1295.8284 1300.433 1307.2827 1310.5145 1316.9782 1320.21 1326.2445 1331.035 1338.1421 1344.9918 1349.9683 1359.1345 1364.7258 1372.2333 1379.083 1384.0595 1387.3341">Bryan: crearCuenta y crearUsuario</tspan></text>
<text xml:space="preserve" transform="matrix(.75 0 0 .75 84.75 54)" font-size="14.299999" font-family="Calibri"><tspan y="357.87803" x="674 680.5637 687.67086 699.0822 705.9319 713.4394 720.28909 723.5209">Semana 3</tspan></text>
<text xml:space="preserve" transform="matrix(.75 0 0 .75 84.75 54)" font-size="14.299999" font-family="Calibri"><tspan y="379.87803" x="129 135.006 142.5135 150.02101 157.12812">Lunes</tspan></text>
<text xml:space="preserve" transform="matrix(.75 0 0 .75 84.75 54)" font-size="14.299999" font-family="Calibri"><tspan y="379.87803" x="335 347.2122 354.0619 359.0383 363.6715 370.7786">Martes</tspan></text>
<text xml:space="preserve" transform="matrix(.75 0 0 .75 84.75 54)" font-size="14.299999" font-family="Calibri"><tspan y="379.87803" x="458 470.2122 473.48689 480.59397 485.37019 491.29039 498.82649 502.10118 509.20826">Mi&#x00e9;rcoles</tspan></text>
<text xml:space="preserve" transform="matrix(.75 0 0 .75 84.75 54)" font-size="14.299999" font-family="Calibri"><tspan y="379.87803" x="624 628.5474 636.05496 643.10488 649.4254 656.53256">Jueves</tspan></text>
<text xml:space="preserve" transform="matrix(.75 0 0 .75 84.75 54)" font-size="14.299999" font-family="Calibri"><tspan y="379.87803" x="864 872.1081 875.3828 882.4899 887.4663 894.9738 902.08096">Viernes</tspan></text>
<text xml:space="preserve" transform="matrix(.75 0 0 .75 84.75 54)" font-size="14.299999" font-family="Calibri"><tspan y="379.87803" x="1090 1096.5637 1103.4135 1110.9209 1117.7706 1125.2781">S&#x00e1;bado</tspan></text>
<text xml:space="preserve" transform="matrix(.75 0 0 .75 84.75 54)" font-size="14.299999" font-family="Calibri"><tspan y="379.87803" x="1269 1277.7946 1285.3307 1296.7421 1300.0167 1307.5242 1314.1593">Domingo</tspan></text>
<text xml:space="preserve" transform="matrix(.75 0 0 .75 84.75 54)" font-size="14.299999" font-family="Calibri" font-weight="bold"><tspan y="418.87803" x="53 60.5647 65.4839 72.6768 79.7267 85.7041 89.2076 96.8867 104.551509 107.78331 115.44811 122.641017 125.87282 137.49872 144.60582 149.42493 157.10402 164.76882 172.4479 178.13932 181.37111 189.0359 196.2288 199.4606 207.1254 214.1753 221.84009 227.76029 235.43938">Creaci&#x00f3;n de m&#x00e9;todos de banco:</tspan></text>
<text xml:space="preserve" transform="matrix(.75 0 0 .75 84.75 54)" font-size="14.299999" font-family="Calibri"><tspan y="436.33027" x="12 20.794499 24.069199 31.176299 37.811498 45.347597 49.165697 52.397497 58.432096 63.22259 70.32969 77.17939 82.15579 89.53459 94.325099 101.4322 106.866199 111.470798 118.320499 129.7319 137.268 140.4998 146.96341 150.1952 161.6066 169.1427 174.57669 179.35289 184.04329 190.89299 195.86939 199.45868 206.89469 210.97019 218.50629 225.88509 230.67559 237.78269 243.21668 247.82128 254.67098 266.08238 273.61848">Diego: crearPrestamo y mostrarInfoPrestamos</tspan></text>
<text xml:space="preserve" transform="matrix(.75 0 0 .75 84.75 54)" font-size="14.299999" font-family="Calibri"><tspan y="453.7825" x="45 53.9089 61.016 64.290699 71.798198 78.9053 83.8817 87.6998 90.931598 96.966197 101.7567 108.8638 115.7135 120.6899 128.3118 135.8193 143.32682 146.55861 153.02222 156.25402 167.6654 175.2015 180.6355 185.4117 190.1021 196.9518 201.92819 205.51749 212.95349 217.02899 224.5651 232.187 239.6945">Heiner: crearCdp y mostrarInfoCdp</tspan></text>
<text xml:space="preserve" transform="matrix(.75 0 0 .75 84.75 54)" font-size="14.299999" font-family="Calibri"><tspan y="471.23475" x="46 53.7649 58.7985 65.0476 71.8973 79.4048 83.2229 86.4547 92.489299 97.2798 104.3869 111.2366 116.213008 123.83491 131.3424 138.44951 145.82833 150.43292 157.28263 160.51442 166.97803 170.20983 176.24443 181.03493 188.14203 194.99173 199.96813 209.13443 214.72573 222.23323 229.08293 234.05933 237.33403">Bryan: crearCuenta y crearUsuario</tspan></text>
<text xml:space="preserve" transform="matrix(.75 0 0 .75 84.75 54)" font-size="14.299999" font-family="Calibri" font-weight="bold"><tspan y="418.87803" x="307 314.6076 319.52684 326.71974 332.41114 339.60404 347.14015 351.95927 359.00917 364.98655 368.49006 376.16917 383.83396 387.06578 394.73057 401.92347">Presentaci&#x00f3;n de </tspan></text>
<text xml:space="preserve" transform="matrix(.75 0 0 .75 84.75 54)" font-size="14.299999" font-family="Calibri" font-weight="bold"><tspan y="436.33027" x="333 339.8497 346.4134 353.4633 361.12809 367.10548 374.29838">avance.</tspan></text>
<text xml:space="preserve" transform="matrix(.75 0 0 .75 84.75 54)" font-size="14.299999" font-family="Calibri"><tspan y="453.7825" x="321 328.5075 335.6146 343.1221 350.6296 353.9043 361.4404 368.9479 372.17973 379.68724 386.7943">Reuni&#x00f3;n de </tspan></text>
<text xml:space="preserve" transform="matrix(.75 0 0 .75 84.75 54)" font-size="14.299999" font-family="Calibri"><tspan y="471.23475" x="317 322.9202 330.4563 337.9924 342.7829 350.2904 353.5651 361.0726 367.9223 373.9569 377.2316 384.7677 392.2752">coordinaci&#x00f3;n.</tspan></text>
<text xml:space="preserve" transform="matrix(.75 0 0 .75 84.75 54)" font-size="14.299999" font-family="Calibri" font-weight="bold"><tspan y="418.87803" x="483 490.5647 495.48393 502.67683 509.7267 515.7041 519.2076 526.88668 534.55148 537.78329 545.44808 552.6409 555.87277 567.49868 574.6057 579.4248 587.1039 594.7687 602.44778 608.13919 611.371 619.03579 626.22866 629.46047 637.12527 644.1752 651.83999 657.7602 665.4393">Creaci&#x00f3;n de m&#x00e9;todos de banco:</tspan></text>
<text xml:space="preserve" transform="matrix(.75 0 0 .75 84.75 54)" font-size="14.299999" font-family="Calibri"><tspan y="436.33027" x="457 465.7945 469.06919 476.17628 482.8115 490.3476 494.1657 497.39753 504.90504 511.75474 518.2183 525.068 530.0444 537.42318 542.2136 549.32077 554.75479 559.3594 566.20907 577.6204 585.1565 590.7478 593.9796 600.44326 603.67507 606.94979 614.48587 621.3356 627.9422 635.0493 641.899 646.87539 656.0417 661.633 669.1405 675.9902 680.96658 684.2413 691.77737">Diego: pagarPrestamos y loggearUsuario </tspan></text>
<text xml:space="preserve" transform="matrix(.75 0 0 .75 84.75 54)" font-size="14.299999" font-family="Calibri"><tspan y="453.7825" x="462 470.9089 478.016 481.29069 488.7982 495.90528 500.88169 504.69978 507.93159 513.8518 521.3879 528.66659 534.9871 542.09426 547.0706 551.8468 555.1215 560.0979 563.3297 569.79336 573.02517 577.8156 584.9227 591.64376 594.91848 600.3525 605.12869 609.81906 616.6687 621.6451 627.7226 632.41299 639.26266 646.77017 652.36148 659.2111 665.2457 671.28036 674.55508 682.0911">Heiner: convertir y registrarTransaccion</tspan></text>
<text xml:space="preserve" transform="matrix(.75 0 0 .75 84.75 54)" font-size="14.299999" font-family="Calibri"><tspan y="471.23475" x="464 471.7649 476.7985 483.04759 489.89729 497.4048 501.2229 504.4547 511.96223 519.06936 526.57687 534.1129 539.7042 542.97897 547.6264 554.9051 558.4658 561.69766 566.4881 573.52377 578.2999 581.57467 586.3222 593.8583 599.4496 602.6814 609.145 612.37686 617.153 621.8434 628.69308 636.20059 641.66317 645.68148 652.7886 657.57907 664.68618 672.19369 678.2283 681.503">Bryan: deposito, retiros y transferencia</tspan></text>
<text xml:space="preserve" transform="matrix(.75 0 0 .75 84.75 54)" font-size="14.299999" font-family="Calibri" font-weight="bold"><tspan y="435.87803" x="797 804.5647 809.4839 816.67678 823.7267 829.7041 833.2076 840.88668 848.55148 851.78329 859.44808 866.6409 869.87277 873.3762 880.42617 883.65798 887.16146 894.6975 899.47378 906.6666 911.7431 916.0331 923.083 928.76016 934.89486 946.52078 953.7136 961.3784 969.0432">Creaci&#x00f3;n de la interfaz/men&#x00fa;:</tspan></text>
<text xml:space="preserve" transform="matrix(.75 0 0 .75 84.75 54)" font-size="14.299999" font-family="Calibri"><tspan y="453.33027" x="772 779.5075 786.6146 794.12216 801.62966 804.90438 812.4404 819.94796 823.17977 829.90078 834.87716 842.38467 849.89218 856.7418 860.01657 863.24838 870.75588 877.6055 882.2959 889.14559 892.3774 899.8849 903.1596 908.7509 915.85806 923.36557 930.9016 934.1334 941.6409 948.74807 951.97988 955.2546 962.63339 967.26657 974.37368 979.35006 983.4398 990.2895 995.938">Reuni&#x00f3;n grupal para dise&#x00f1;o de interfaz.</tspan></text>
<text xml:space="preserve" transform="matrix(.75 0 0 .75 84.75 54)" font-size="14.299999" font-family="Calibri" font-weight="bold"><tspan y="426.87803" x="1151 1163.4982 1170.5481 1178.2129 1185.4058 1189.0523 1196.7313 1199.9631 1207.6279 1214.8208 1218.0526 1225.031 1231.2802 1237.2576 1244.4505 1252.1152 1258.0927 1261.5962 1269.2753 1276.9401 1284.1329 1289.8244">Manejo de excepciones:</tspan></text>
<text xml:space="preserve" transform="matrix(.75 0 0 .75 84.75 54)" font-size="14.299999" font-family="Calibri"><tspan y="444.33027" x="1051 1058.622 1065.4717 1072.9791 1079.8289 1083.0607 1086.3353 1093.7141 1098.3474 1105.4545 1112.1754 1116.8659 1123.7156 1131.0944 1135.7277 1142.8347 1146.0665 1151.6578 1158.7649 1161.9967 1169.1038 1176.6112 1182.5314 1189.3811 1194.1716 1200.6351 1207.4849 1210.7167 1213.9485 1221.4559 1228.563 1231.8377 1235.0695 1246.4808 1253.3306 1260.838 1267.9451 1271.3628 1278.8989 1282.1307 1289.6382 1296.7453 1299.977 1303.2517 1310.7879 1316.3792 1319.611 1331.0223 1338.0579 1342.7055 1350.2416 1357.749 1365.2852 1370.8765 1374.1083 1381.6157 1388.7228">Cada integrante se encarga  del manejo de los m&#x00e9;todos de </tspan></text>
<text xml:space="preserve" transform="matrix(.75 0 0 .75 84.75 54)" font-size="14.299999" font-family="Calibri"><tspan y="461.7825" x="1131 1138.5075 1145.3572 1152.8646 1158.7848 1166.3209 1169.5527 1176.0164 1179.2482 1186.7556 1193.8627 1205.274 1212.1238 1217.7151 1220.9469 1226.9815 1230.2561 1237.1058 1242.6972 1249.8042 1255.3955 1258.6273 1266.1348 1273.6422 1280.7493 1283.9811 1290.0156 1294.8062 1301.9132 1309.4494">banco y dem&#x00e1;s clases que cre&#x00f3;.</tspan></text>
<text xml:space="preserve" transform="matrix(.75 0 0 .75 84.75 54)" font-size="14.299999" font-family="Calibri"><tspan y="508.87803" x="674 680.5637 687.67086 699.0822 705.9319 713.4394 720.28909 723.5209">Semana 4</tspan></text>
<text xml:space="preserve" transform="matrix(.75 0 0 .75 84.75 54)" font-size="14.299999" font-family="Calibri"><tspan y="530.87808" x="129 135.006 142.5135 150.02101 157.12812">Lunes</tspan></text>
<text xml:space="preserve" transform="matrix(.75 0 0 .75 84.75 54)" font-size="14.299999" font-family="Calibri"><tspan y="530.87808" x="335 347.2122 354.0619 359.0383 363.6715 370.7786">Martes</tspan></text>
<text xml:space="preserve" transform="matrix(.75 0 0 .75 84.75 54)" font-size="14.299999" font-family="Calibri"><tspan y="530.87808" x="458 470.2122 473.48689 480.59397 485.37019 491.29039 498.82649 502.10118 509.20826">Mi&#x00e9;rcoles</tspan></text>
<text xml:space="preserve" transform="matrix(.75 0 0 .75 84.75 54)" font-size="14.299999" font-family="Calibri"><tspan y="530.87808" x="624 628.5474 636.05496 643.10488 649.4254 656.53256">Jueves</tspan></text>
<text xml:space="preserve" transform="matrix(.75 0 0 .75 84.75 54)" font-size="14.299999" font-family="Calibri"><tspan y="530.87808" x="864 872.1081 875.3828 882.4899 887.4663 894.9738 902.08096">Viernes</tspan></text>
<text xml:space="preserve" transform="matrix(.75 0 0 .75 84.75 54)" font-size="14.299999" font-family="Calibri"><tspan y="530.87808" x="1090 1096.5637 1103.4135 1110.9209 1117.7706 1125.2781">S&#x00e1;bado</tspan></text>
<text xml:space="preserve" transform="matrix(.75 0 0 .75 84.75 54)" font-size="14.299999" font-family="Calibri"><tspan y="530.87808" x="1269 1277.7946 1285.3307 1296.7421 1300.0167 1307.5242 1314.1593">Domingo</tspan></text>
<text xml:space="preserve" transform="matrix(.75 0 0 .75 84.75 54)" font-size="14.299999" font-family="Calibri" font-weight="bold"><tspan y="586.87808" x="198 207.009 214.6881 220.6655 228.33029 239.95619 247.1491 254.6852 259.5043 266.5542 272.5316 276.0351 283.7142 291.379 294.6108 301.3747 304.6065 312.2713 319.37843 324.19755 331.24745 334.75096 338.25447 345.44737 351.13877">Documentaci&#x00f3;n y detalles:</tspan></text>
<text xml:space="preserve" transform="matrix(.75 0 0 .75 84.75 54)" font-size="14.299999" font-family="Calibri"><tspan y="604.33029" x="126 130.3758 133.60759 141.22949 148.0792 155.5867 162.4364 165.6682 168.9429 176.32172 180.95491 188.06201 194.783 199.4734 206.3231 213.70192 218.33512 225.44222 228.67401 236.18152 243.71762 249.75223 257.25975 268.67115 275.77824 283.15705 287.76167 294.61137 297.84318 301.11787 308.65397 314.24528 317.47709 328.8885 335.92408 340.5716 348.1077 355.6152 363.1513 368.7426 371.97444 379.48194 386.98945 394.09654 397.32835 403.36296 408.15345 415.26054 422.79664">- Cada integrante documenta los m&#x00e9;todos que cre&#x00f3;.</tspan></text>
<text xml:space="preserve" transform="matrix(.75 0 0 .75 84.75 54)" font-size="14.299999" font-family="Calibri"><tspan y="621.7825" x="161 165.3758 168.60759 175.1713 182.2784 185.5102 193.0177 199.8674 205.90201 213.00911 216.2409 223.74842 231.25592 238.10562 241.33742 246.12792 253.17781 259.6271 262.9018 268.4931 271.7678 279.3039 286.8114 290.0432 294.40473 297.6794 305.18693 312.03663 315.3113 318.54313 324.46333 331.99943 343.41084 350.94694 354.17875 360.89976 365.87617 373.38368 380.89118 388.42729">- Se hace una revisi&#x00f3;n final como grupo.</tspan></text>
<text xml:space="preserve" transform="matrix(.75 0 0 .75 84.75 54)" font-size="14.299999" font-family="Calibri" font-weight="bold"><tspan y="560.87808" x="595 602.6076 606.1111 613.161 620.8258 624.3293 628.8481 632.35159 638.2575 645.30746 651.28488 654.7883 662.4674 670.1322 673.364 681.0288 688.2217">Planificaci&#x00f3;n de </tspan></text>
<text xml:space="preserve" transform="matrix(.75 0 0 .75 84.75 54)" font-size="14.299999" font-family="Calibri" font-weight="bold"><tspan y="578.33029" x="603 610.6648 615.584 622.77688 628.46829 635.66116 643.1972 648.0163 655.0662 661.04367 664.5471 672.2262 679.891">presentaci&#x00f3;n:</tspan></text>
<text xml:space="preserve" transform="matrix(.75 0 0 .75 84.75 54)" font-size="14.299999" font-family="Calibri"><tspan y="595.7825" x="561 565.3758 572.8833 579.9904 587.4979 595.00546 598.28018 605.8162 613.3237 616.55557 623.27658 628.2529 635.76046 643.26797 650.1176 653.39236 656.62417 664.13168 670.9813 675.6717 682.52139 685.7532 693.2607 700.2534 704.6149 707.88967 715.39718 718.6719 723.64828">-Reuni&#x00f3;n grupal para definir </tspan></text>
<text xml:space="preserve" transform="matrix(.75 0 0 .75 84.75 54)" font-size="14.299999" font-family="Calibri"><tspan y="613.23477" x="604 611.5075 616.298 623.4051 628.9964 636.1035 643.4823 648.0869 654.9366 660.9712 664.2459 671.782 679.2895">presentaci&#x00f3;n.</tspan></text>
<text xml:space="preserve" transform="matrix(.75 0 0 .75 84.75 54)" font-size="14.299999" font-family="Calibri"><tspan y="630.687" x="560 564.3758 571.7546 576.73098 584.23849 591.3456 598.8531 605.70278 611.29409 614.5259 622.0334 629.1405 632.3723 636.7338 644.24136 651.74887 657.78347 661.05819 668.59426 676.10177 682.9514 694.3628 697.6375 704.7446 712.1234 716.7709 724.30697">-Pruebas de funcionamiento </tspan></text>
<text xml:space="preserve" transform="matrix(.75 0 0 .75 84.75 54)" font-size="14.299999" font-family="Calibri"><tspan y="648.1392" x="620 626.6066 633.71377 641.22128 648.32839 653.01876 659.8684 663.1431">general.</tspan></text>
<text xml:space="preserve" transform="matrix(.75 0 0 .75 84.75 54)" font-size="14.299999" font-family="Calibri" font-weight="bold"><tspan y="603.87808" x="830 837.6076 842.5268 849.71969 855.4111 862.60397 870.14 874.9591 882.00906 887.98648 891.4899 899.169 906.8338 910.0656 914.5844 918.0879 925.7527 932.8026 936.3061">Presentaci&#x00f3;n final.</tspan></text>
</g>
</g>
</svg>
